# xmcd
#
# Track frame offsets:
#	150
#	16848
#	29250
#	43291
#	56911
#	70531
#	82672
#	99877
#	117163
#	133710
#	147336
#	162473
#	179580
#	191960
#
# Disc length: 2777 seconds
#
# Revision: 0
# Processed by: cddbd v1.5.2PL0 Copyright (c) Steve Scherf et al.
# Submitted via: EasyCDDAExtractor 11.1.0.1
#
DISCID=c00ad70e
DTITLE=Various Artist - mr music country
DYEAR=2010
DGENRE=country
TTITLE0=arty hill and the long gone daddy'serin hay - bar of gold
TTITLE1=erin hay - don't call me from a honky tonk
TTITLE2=Lonnie spiker - the gospel according to hank
TTITLE3=the sixons - please don't stop lovin' me
TTITLE4=the starline rhythm boys - A memory of fred
TTITLE5=li'l mo and the monicats - I've got a new heartache
TTITLE6=Leif aase - Church street social club
TTITLE7=john arthur martinez - I watched you break my heart
TTITLE8=Jolie holiday - I'm coming home to you
TTITLE9=sammy kershaw - I ain't fallin' for that
TTITLE10=Kim carson - I'm not Lisa
TTITLE11=k.c. williams - Cupid must've hit a bullseye
TTITLE12=pam tillis and mel tillis - the rockin' christmas medley
TTITLE13=larry sparks - John Deere tractor
EXTD=
EXTT0=
EXTT1=
EXTT2=
EXTT3=
EXTT4=
EXTT5=
EXTT6=
EXTT7=
EXTT8=
EXTT9=
EXTT10=
EXTT11=
EXTT12=
EXTT13=
PLAYORDER=
